<?xml version="1.0" encoding="utf-8"?>
<!-- Generator: Adobe Illustrator 25.4.8, SVG Export Plug-In . SVG Version: 6.00 Build 0)  -->
<svg version="1.1" id="Layer_1" xmlns="http://www.w3.org/2000/svg" xmlns:xlink="http://www.w3.org/1999/xlink" x="0px" y="0px"
	 viewBox="0 0 141.7 141.7" style="enable-background:new 0 0 141.7 141.7;" xml:space="preserve">
<style type="text/css">
	.st0{fill:#95C11F;}
	.st1{fill:#575756;}
	.st2{fill:#706F6F;}
	.st3{enable-background:new    ;}
	.st4{fill:url(#SVGID_1_);}
	.st5{fill:url(#SVGID_00000172420537262674798770000009756664144047637633_);}
	.st6{fill:url(#SVGID_00000100356973281740111640000004781425206945686205_);}
	.st7{fill:url(#SVGID_00000182523520386941795370000011980024538135156376_);}
	.st8{fill:url(#SVGID_00000023992506711199218510000017185113587372625079_);}
	.st9{fill:#DBDBDB;}
	.st10{fill:url(#SVGID_00000061474015268039893220000010163260696215991743_);}
	.st11{fill:url(#SVGID_00000168829956681938283140000012041876081016619144_);}
	.st12{fill:url(#SVGID_00000071526285649419525190000010931474595578380447_);}
	.st13{opacity:0.57;fill:#FFFFFF;}
	.st14{opacity:0.69;fill:none;stroke:#1D9EB8;stroke-width:0.7907;stroke-miterlimit:10;}
</style>
<path class="st0" d="M77.5,129.9l-48.4-28c-1-0.6-1.6-1.7-1.6-2.9l0.1-1.7c0.1-0.9,0.1-1.6,0.2-2.1h0V37.5l0.1-4.3
	c0-1.1,0.7-2.2,1.7-2.7l31.9-17c0.9-0.5,2.1-0.5,3,0l48.8,27.1c1,0.6,1.6,1.6,1.6,2.8l0,1.6l-0.1,2.7l-0.1,57.2l-0.1,4
	c0,1.1-0.6,2.1-1.5,2.6l-31.1,18.4l-0.6,0.4c-1,0.6-2.2,0.6-3.2,0L77.5,129.9z"/>
<path class="st1" d="M112.5,104.8c-0.3-0.2-2.7-1.3-2.7-1.3l0.3,4.1L112.5,104.8z"/>
<polygon class="st2" points="29.8,95.1 33.1,94.2 32.5,98.1 "/>
<g>
	<g>
		<g class="st3">
			<g>
				<linearGradient id="SVGID_1_" gradientUnits="userSpaceOnUse" x1="79.7937" y1="116.7105" x2="112.4886" y2="116.7105">
					<stop  offset="0" style="stop-color:#878787"/>
					<stop  offset="1" style="stop-color:#3C3C3B"/>
				</linearGradient>
				<polygon class="st4" points="112.5,104.8 112.4,109.3 79.8,128.6 79.9,123.7 				"/>
			</g>
			<g>
				
					<linearGradient id="SVGID_00000080190753049763284340000008490374199973744537_" gradientUnits="userSpaceOnUse" x1="29.7446" y1="111.8483" x2="79.9252" y2="111.8483">
					<stop  offset="0" style="stop-color:#878787"/>
					<stop  offset="1" style="stop-color:#3C3C3B"/>
				</linearGradient>
				<polygon style="fill:url(#SVGID_00000080190753049763284340000008490374199973744537_);" points="79.9,124.1 79.8,128.6 
					29.7,99.6 29.8,95.1 				"/>
			</g>
			<g>
				
					<linearGradient id="SVGID_00000039118394460807363460000017886099156267423879_" gradientUnits="userSpaceOnUse" x1="89.4402" y1="77.1113" x2="44.6799" y2="117.2309">
					<stop  offset="0" style="stop-color:#505FAA"/>
					<stop  offset="0.7039" style="stop-color:#8F92C7"/>
					<stop  offset="1" style="stop-color:#BCBEDD"/>
				</linearGradient>
				<polygon style="fill:url(#SVGID_00000039118394460807363460000017886099156267423879_);" points="109.9,106 79.3,123.8 
					32.9,96.5 63.5,53 				"/>
			</g>
		</g>
	</g>
	<g>
		<g class="st3">
			<g>
				
					<linearGradient id="SVGID_00000094583222235246624100000015770381275444248475_" gradientUnits="userSpaceOnUse" x1="79.7724" y1="85.7669" x2="110.9174" y2="85.7669">
					<stop  offset="0" style="stop-color:#C6C6C6"/>
					<stop  offset="1" style="stop-color:#F6F6F6"/>
				</linearGradient>
				<polygon style="fill:url(#SVGID_00000094583222235246624100000015770381275444248475_);" points="110.9,47.2 110.8,105.8 
					79.8,124.3 79.9,65.4 				"/>
			</g>
			<g>
				
					<linearGradient id="SVGID_00000124859170317972949060000011987366093220392071_" gradientUnits="userSpaceOnUse" x1="84.012" y1="73.231" x2="34.5974" y2="86.7997">
					<stop  offset="0" style="stop-color:#F6F6F6"/>
					<stop  offset="1" style="stop-color:#DADADA"/>
				</linearGradient>
				<polygon style="fill:url(#SVGID_00000124859170317972949060000011987366093220392071_);" points="79.9,65.4 79.9,124.4 
					32.1,96.5 32,37.5 				"/>
			</g>
			<g>
				<polygon class="st9" points="112.7,46.3 79.9,65.4 30.2,36.2 63,18.7 				"/>
			</g>
		</g>
	</g>
	<g>
		<g class="st3">
			<g>
				
					<linearGradient id="SVGID_00000114761101115696804200000004813867056813845940_" gradientUnits="userSpaceOnUse" x1="79.7724" y1="54.7362" x2="112.6613" y2="54.7362">
					<stop  offset="0" style="stop-color:#878787"/>
					<stop  offset="1" style="stop-color:#3C3C3B"/>
				</linearGradient>
				<polygon style="fill:url(#SVGID_00000114761101115696804200000004813867056813845940_);" points="112.7,42.8 112.6,47.6 
					79.8,66.7 79.9,61.9 				"/>
			</g>
			<g>
				
					<linearGradient id="SVGID_00000160168254129092204380000009283703108652604329_" gradientUnits="userSpaceOnUse" x1="30.0976" y1="49.6609" x2="79.8689" y2="49.6609">
					<stop  offset="0" style="stop-color:#878787"/>
					<stop  offset="1" style="stop-color:#3C3C3B"/>
				</linearGradient>
				<polygon style="fill:url(#SVGID_00000160168254129092204380000009283703108652604329_);" points="79.9,61.9 79.8,66.7 
					30.1,37.5 30.2,32.7 				"/>
			</g>
			<g>
				
					<linearGradient id="SVGID_00000134928380926380843810000003287642291098134194_" gradientUnits="userSpaceOnUse" x1="64.4293" y1="11.6191" x2="79.2729" y2="67.0164">
					<stop  offset="0" style="stop-color:#B2B2B2"/>
					<stop  offset="1" style="stop-color:#EDEDED"/>
				</linearGradient>
				<polygon style="fill:url(#SVGID_00000134928380926380843810000003287642291098134194_);" points="112.7,42.8 79.9,61.9 
					30.2,32.7 63,15.2 				"/>
			</g>
		</g>
	</g>
</g>
<polygon class="st13" points="30.1,37.5 30.1,95.1 79.9,124.4 112.5,104.8 112.6,47.6 79.7,66.7 "/>
<polyline class="st14" points="32,48.3 79.7,76.3 110.6,58.4 "/>
<polyline class="st14" points="32,60.6 79.7,88.6 110.6,70.7 "/>
<polyline class="st14" points="32,72.8 79.7,100.8 110.6,83 "/>
<polyline class="st14" points="32,85.1 79.7,113.1 110.6,95.2 "/>
</svg>
