<?xml version="1.0" encoding="utf-8"?>
<!-- Generator: Adobe Illustrator 25.4.8, SVG Export Plug-In . SVG Version: 6.00 Build 0)  -->
<svg version="1.1" id="Layer_1" xmlns="http://www.w3.org/2000/svg" xmlns:xlink="http://www.w3.org/1999/xlink" x="0px" y="0px"
	 viewBox="0 0 141.7 141.7" style="enable-background:new 0 0 141.7 141.7;" xml:space="preserve">
<style type="text/css">
	.st0{fill:#95C11F;}
	.st1{fill:#0AA29A;}
	.st2{fill:#E3E3E3;}
	.st3{fill:#F2EDED;}
	.st4{fill:url(#SVGID_1_);}
	.st5{fill:url(#SVGID_00000037665604836332725910000009693539243850863544_);}
	.st6{fill:url(#SVGID_00000177466693370859939470000011613522943107936643_);}
	.st7{fill:url(#SVGID_00000010301692099504815700000011449953703017660860_);}
	.st8{fill:#939496;}
	.st9{fill:url(#SVGID_00000078762085212069211450000016100926641841299853_);}
	.st10{fill:url(#SVGID_00000080178270120744496620000004866704929824329149_);}
	.st11{fill:url(#SVGID_00000035500319266973712660000016759338823529278141_);}
	.st12{fill:url(#SVGID_00000101074508997151906200000005830876551061245629_);}
	.st13{fill:url(#SVGID_00000049909926430621391050000001413464496260001713_);}
	.st14{fill:url(#SVGID_00000183206561454623059370000000178115470182596002_);}
	.st15{fill:url(#SVGID_00000167369336898427719780000006326862881557349008_);}
	.st16{fill:url(#SVGID_00000100374737714109569720000013374841517152605607_);}
	.st17{fill:url(#SVGID_00000023264279970458285560000014275287670385631912_);}
	.st18{opacity:0.2;}
	.st19{fill:#979792;}
	.st20{fill:url(#SVGID_00000178164767050868803280000002356057448428157627_);}
	.st21{fill:#999999;}
	.st22{fill:#FFFFFF;}
</style>
<path class="st0" d="M6.8,101.5V81.1c0-0.7,0.3-1.4,0.8-1.9L24,64.8v-0.5l1.2-0.5l3.5-1.4L69.8,46c1.6-0.6,3.4,0.5,3.4,2.3v8.4
	c0,1.7,1.8,2.9,3.4,2.3L91,53.2c0.9-0.4,1.6-1.3,1.6-2.3v0c0-1,0.6-2,1.6-2.3l10.6-3.9c0.9-0.3,1.6-1.2,1.6-2.2
	c0.3-10.1,0.9-24.7,1-27.3c0-0.1,0-0.3,0.1-0.4l0.1-0.5c0.2-0.8,0.7-1.4,1.4-1.8l1.5-0.6c1.3-0.5,2.6-0.6,3.4-0.6
	c1.1,0,2.1,0.2,3,0.5c1.6,0.6,2.3,1.5,2.7,2.1c0.3,0.6,0.4,1.2,0.3,1.9c0.1,2.2,0.3,7.9,0.6,13.9c0.2,4.6,0.4,9.4,0.6,13.5
	c0,0.9,0.6,1.8,1.4,2.1l11.8,5.5c0.9,0.4,1.4,1.3,1.4,2.2v50.3c0,1-0.6,2-1.6,2.3l-4.1,1.5c-0.6,0.2-1.3,0.2-1.9-0.1l-3.2-1.5
	c-1.6-0.8-3.5,0.4-3.5,2.2v0.8c0,1-0.6,1.9-1.6,2.3l-2.3,0.9l-44.9,19.2c-0.6,0.3-1.3,0.3-2,0L8.2,103.7
	C7.3,103.3,6.8,102.4,6.8,101.5z"/>
<g>
	<g>
		<g>
			<g>
				<g>
					<g>
						<polygon class="st1" points="114.4,99.3 94.8,90.2 94.8,79.1 114.4,88.1 						"/>
					</g>
				</g>
				<g>
					<g>
						<g>
							<polygon class="st2" points="114.4,89.3 94.8,80.2 94.8,69.1 114.4,78.2 							"/>
						</g>
					</g>
				</g>
				<g>
					<polygon class="st3" points="114.4,59.8 94.8,50.8 113.7,43.8 133.4,52.8 					"/>
				</g>
				<linearGradient id="SVGID_1_" gradientUnits="userSpaceOnUse" x1="101.5922" y1="44.1473" x2="106.5328" y2="80.502">
					<stop  offset="0" style="stop-color:#EBEBEB"/>
					<stop  offset="1" style="stop-color:#E0E0E0"/>
				</linearGradient>
				<polygon class="st4" points="114.4,71 114.4,59.8 94.8,50.8 94.8,61.9 94.8,61.9 94.8,73 114.4,82.1 114.4,71 				"/>
				<g>
					
						<linearGradient id="SVGID_00000156551617702448238020000004792517135545005973_" gradientUnits="userSpaceOnUse" x1="37.7223" y1="36.3169" x2="59.3419" y2="119.2755">
						<stop  offset="0" style="stop-color:#EAEAEA"/>
						<stop  offset="1" style="stop-color:#3C3C3B"/>
					</linearGradient>
					<polygon style="fill:url(#SVGID_00000156551617702448238020000004792517135545005973_);" points="26.3,65.8 26.3,108.3 
						30.4,110 70.9,93.8 70.9,48 					"/>
				</g>
				
					<linearGradient id="SVGID_00000039840314111520473790000016923857579966387087_" gradientUnits="userSpaceOnUse" x1="65.9976" y1="40.9825" x2="75.9405" y2="134.4131">
					<stop  offset="0" style="stop-color:#EAEAEA"/>
					<stop  offset="1" style="stop-color:#3C3C3B"/>
				</linearGradient>
				<polygon style="fill:url(#SVGID_00000039840314111520473790000016923857579966387087_);" points="48.5,72.6 48.5,117.6 
					49.5,118.1 93.1,100.7 93.1,54.8 				"/>
				
					<linearGradient id="SVGID_00000106106229096108052260000009922230886867684247_" gradientUnits="userSpaceOnUse" x1="9.0178" y1="97.2706" x2="71.5835" y2="97.2706">
					<stop  offset="0" style="stop-color:#F4F4F4"/>
					<stop  offset="1" style="stop-color:#E9E9E9"/>
				</linearGradient>
				<polygon style="fill:url(#SVGID_00000106106229096108052260000009922230886867684247_);" points="9,101.6 71.5,128.9 71.6,82.9 
					48.9,98.2 48.6,72.7 26.5,89 26.5,65.7 9,81 				"/>
				<g>
					<polygon class="st8" points="117.2,82.5 117.2,99.6 129,105 129.3,82.9 					"/>
				</g>
				
					<linearGradient id="SVGID_00000021093272751739255740000005584514094202154636_" gradientUnits="userSpaceOnUse" x1="54.1666" y1="55.9798" x2="155.7256" y2="160.0923">
					<stop  offset="0" style="stop-color:#EAEAEA"/>
					<stop  offset="1" style="stop-color:#A4A4A4"/>
				</linearGradient>
				<polygon style="fill:url(#SVGID_00000021093272751739255740000005584514094202154636_);" points="116.6,109.7 71.5,128.9 
					71.5,83 116.6,64.8 				"/>
				<g>
					
						<linearGradient id="SVGID_00000091726289312567364680000016415530755067943563_" gradientUnits="userSpaceOnUse" x1="81.9777" y1="38.6997" x2="177.1138" y2="136.2278">
						<stop  offset="0" style="stop-color:#EAEAEA"/>
						<stop  offset="0.9996" style="stop-color:#787878"/>
					</linearGradient>
					<path style="fill:url(#SVGID_00000091726289312567364680000016415530755067943563_);" d="M133.4,52.8l-18.9,7l0,11.1l19-7
						L133.4,52.8z M133.4,64l-18.9,6.9l0,39.6l4.6-1.8V90.2l10-4.1V105l4.4-1.6L133.4,64z"/>
				</g>
			</g>
			<g>
				<g>
					
						<linearGradient id="SVGID_00000172440215659529381580000015102894929648161201_" gradientUnits="userSpaceOnUse" x1="67.5812" y1="37.0147" x2="88.9873" y2="117.7516">
						<stop  offset="0" style="stop-color:#EAEAEA"/>
						<stop  offset="1" style="stop-color:#A4A4A4"/>
					</linearGradient>
					<polygon style="fill:url(#SVGID_00000172440215659529381580000015102894929648161201_);" points="81.9,117.8 91.7,113.6 
						91.5,100.5 81.8,104.7 					"/>
				</g>
			</g>
			<g>
				<g>
					
						<linearGradient id="SVGID_00000113331219516285805240000009673238901951964808_" gradientUnits="userSpaceOnUse" x1="82.7189" y1="33.6187" x2="104.1231" y2="114.3482">
						<stop  offset="0" style="stop-color:#EAEAEA"/>
						<stop  offset="1" style="stop-color:#A4A4A4"/>
					</linearGradient>
					<polygon style="fill:url(#SVGID_00000113331219516285805240000009673238901951964808_);" points="96.3,111.7 106.1,107.5 
						106,94.4 96.2,98.6 					"/>
				</g>
			</g>
			<g>
				<g>
					
						<linearGradient id="SVGID_00000033340202863674450900000004311319900085421478_" gradientUnits="userSpaceOnUse" x1="71.1808" y1="35.5734" x2="92.5856" y2="116.3053">
						<stop  offset="0" style="stop-color:#EAEAEA"/>
						<stop  offset="1" style="stop-color:#A4A4A4"/>
					</linearGradient>
					<polygon style="fill:url(#SVGID_00000033340202863674450900000004311319900085421478_);" points="81.7,102.2 91.5,98 
						91.4,84.9 81.6,89.2 					"/>
				</g>
			</g>
			<g>
				<g>
					
						<linearGradient id="SVGID_00000072254925877649127760000009369197307451905966_" gradientUnits="userSpaceOnUse" x1="86.3189" y1="32.1666" x2="107.725" y2="112.9036">
						<stop  offset="0" style="stop-color:#EAEAEA"/>
						<stop  offset="1" style="stop-color:#A4A4A4"/>
					</linearGradient>
					<polygon style="fill:url(#SVGID_00000072254925877649127760000009369197307451905966_);" points="96.2,96.1 105.9,91.9 
						105.8,78.8 96,83 					"/>
				</g>
			</g>
			<g>
				<g>
					
						<linearGradient id="SVGID_00000079457479390106580580000000360451612791661725_" gradientUnits="userSpaceOnUse" x1="37.8744" y1="92.0518" x2="38.0482" y2="166.8627">
						<stop  offset="0" style="stop-color:#EAEAEA"/>
						<stop  offset="1" style="stop-color:#A4A4A4"/>
					</linearGradient>
					<polygon style="fill:url(#SVGID_00000079457479390106580580000000360451612791661725_);" points="42.9,111.7 32.9,107.4 
						32.9,94.4 42.9,98.8 					"/>
				</g>
			</g>
			<g>
				<g>
					
						<linearGradient id="SVGID_00000063613265152210939870000011261078950339957940_" gradientUnits="userSpaceOnUse" x1="53.006" y1="92.0214" x2="53.1798" y2="166.8326">
						<stop  offset="0" style="stop-color:#EAEAEA"/>
						<stop  offset="1" style="stop-color:#A4A4A4"/>
					</linearGradient>
					<polygon style="fill:url(#SVGID_00000063613265152210939870000011261078950339957940_);" points="58,118.5 48.1,114.1 
						48.1,101.1 58,105.5 					"/>
				</g>
			</g>
			<g>
				<g>
					
						<linearGradient id="SVGID_00000075870238943717977100000003320949250738227899_" gradientUnits="userSpaceOnUse" x1="21.1639" y1="92.0853" x2="21.3377" y2="166.8966">
						<stop  offset="0" style="stop-color:#EAEAEA"/>
						<stop  offset="1" style="stop-color:#A4A4A4"/>
					</linearGradient>
					<polygon style="fill:url(#SVGID_00000075870238943717977100000003320949250738227899_);" points="26.1,104.4 16.2,100 
						16.2,87.1 26.1,91.4 					"/>
				</g>
			</g>
		</g>
		<g>
			<g class="st18">
				<path class="st19" d="M110.9,50.1c-1.8,0.6-1.5,1.6-0.5,2.5c1.4,1.2,4,2.1,5.4,1.8c0.8-0.2,6-1.9,12.2-3.9l-7-3.3
					C115.8,48.6,111.7,49.8,110.9,50.1z"/>
			</g>
			<g>
				<g>
					
						<linearGradient id="SVGID_00000051351203036609561200000002998381252431478423_" gradientUnits="userSpaceOnUse" x1="109.3493" y1="34.9277" x2="131.8473" y2="34.4889">
						<stop  offset="0" style="stop-color:#EAEAEA"/>
						<stop  offset="1" style="stop-color:#A4A4A4"/>
					</linearGradient>
					<path style="fill:url(#SVGID_00000051351203036609561200000002998381252431478423_);" d="M117.5,14.9c0,2.6,1.5,35.1,1.4,37.2
						c-0.1,2.5-10.4,4.4-10.5,0c-0.2-2.5,1.1-34,1.2-37C111.5,18.3,116.5,17.2,117.5,14.9z"/>
					<g>
						<g>
							<g>
								<path class="st21" d="M110.6,14.3c-1.4,0.8-1.1,1.9,0.6,2.5c1.7,0.6,4.2,0.4,5.6-0.4c1.4-0.8,1.1-1.9-0.6-2.5
									C114.4,13.3,112,13.5,110.6,14.3L110.6,14.3z"/>
							</g>
						</g>
					</g>
					<g>
						<path class="st22" d="M111.6,14.7c-0.9,0.5-0.8,1.3,0.4,1.6c1.1,0.4,2.8,0.3,3.7-0.3c0.9-0.5,0.8-1.3-0.4-1.7
							C114.2,14,112.5,14.1,111.6,14.7L111.6,14.7z"/>
					</g>
				</g>
			</g>
		</g>
	</g>
</g>
</svg>
