<?xml version="1.0" encoding="utf-8"?>
<!-- Generator: Adobe Illustrator 25.4.8, SVG Export Plug-In . SVG Version: 6.00 Build 0)  -->
<svg version="1.1" id="Layer_1" xmlns="http://www.w3.org/2000/svg" xmlns:xlink="http://www.w3.org/1999/xlink" x="0px" y="0px"
	 viewBox="0 0 141.7 141.7" style="enable-background:new 0 0 141.7 141.7;" xml:space="preserve">
<style type="text/css">
	.st0{fill:#95C11F;}
	.st1{fill:url(#SVGID_1_);}
	.st2{fill:url(#SVGID_00000123430778611406637400000017872904416982649235_);}
	.st3{fill:url(#SVGID_00000171688600687582871310000009440160811076581821_);}
	.st4{fill:url(#SVGID_00000012467495583530300600000002111708647257502619_);}
	.st5{fill:url(#SVGID_00000047770547829351300070000012789128979131123881_);}
	.st6{fill:url(#SVGID_00000060003526829510952770000014589504819012662719_);}
	.st7{fill:url(#SVGID_00000105416913540141598980000006540620100032171695_);}
	.st8{fill:url(#SVGID_00000124849599155912748410000001218960487833853351_);}
	.st9{fill:url(#SVGID_00000176729852142284310380000007666372313954271642_);}
	.st10{fill:url(#SVGID_00000126324862759494793150000015578239128890080442_);}
	.st11{fill:#004269;}
</style>
<path class="st0" d="M44.8,117.3v-2.3c0-0.9,0.5-1.7,1.2-2.1l7.1-4.2c0.8-0.4,1.2-1.3,1.2-2.1V88.7c0-0.9-0.5-1.7-1.3-2.2L22.6,69.5
	c-0.6-0.4-1.1-1-1.2-1.7l-0.6-3.5c-0.1-0.7,0-1.4,0.5-1.9l33.4-44.7c0.7-1,2.1-1.3,3.2-0.7l61.9,34.7c0.6,0.4,1.1,1,1.2,1.7l0.6,3.5
	c0.1,0.7,0,1.4-0.5,1.9l-33.4,44.7c-0.7,1-2.1,1.3-3.2,0.7l-17.4-9.8c-1.6-0.9-3.7,0.3-3.7,2.2v11.8c0,1,0.6,1.9,1.5,2.2l5.6,2.5
	c0.9,0.4,1.5,1.3,1.5,2.2v2.3c0,0.9-0.5,1.7-1.2,2.1l-9.2,5.4c-0.7,0.4-1.5,0.5-2.3,0.1l-13-5.9C45.4,119.1,44.8,118.2,44.8,117.3z"
	/>
<g>
	<g>
		<linearGradient id="SVGID_1_" gradientUnits="userSpaceOnUse" x1="48.5008" y1="116.4212" x2="70.0368" y2="118.9909">
			<stop  offset="0" style="stop-color:#EAEAEA"/>
			<stop  offset="1" style="stop-color:#A4A4A4"/>
		</linearGradient>
		<polygon class="st1" points="47.1,117.4 60.2,123.3 69.7,117.8 56.5,111.9 47.1,114.8 		"/>
		
			<linearGradient id="SVGID_00000139291937737312573010000013478069580808284080_" gradientUnits="userSpaceOnUse" x1="58.1582" y1="122.6014" x2="58.5279" y2="108.5993">
			<stop  offset="0" style="stop-color:#EAEAEA"/>
			<stop  offset="1" style="stop-color:#A4A4A4"/>
		</linearGradient>
		<polygon style="fill:url(#SVGID_00000139291937737312573010000013478069580808284080_);" points="47.1,114.8 60.2,120.8 
			69.7,115.2 56.5,109.3 		"/>
		<g>
			
				<linearGradient id="SVGID_00000018953318632536189980000011865129961192958850_" gradientUnits="userSpaceOnUse" x1="71.223" y1="108.3978" x2="52.9023" y2="83.9292">
				<stop  offset="0" style="stop-color:#FFFFFF"/>
				<stop  offset="1" style="stop-color:#A4A4A4"/>
			</linearGradient>
			<polygon style="fill:url(#SVGID_00000018953318632536189980000011865129961192958850_);" points="58.4,70 58.4,116.6 61.1,114.8 
				61.1,69.6 			"/>
			
				<linearGradient id="SVGID_00000170981046131875435350000017057868053485324702_" gradientUnits="userSpaceOnUse" x1="69.8418" y1="109.1971" x2="51.194" y2="84.2916">
				<stop  offset="0" style="stop-color:#EAEAEA"/>
				<stop  offset="1" style="stop-color:#878787"/>
			</linearGradient>
			<polygon style="fill:url(#SVGID_00000170981046131875435350000017057868053485324702_);" points="58.4,70 56.6,70.3 56.6,115.3 
				58.4,116.6 			"/>
		</g>
		
			<linearGradient id="SVGID_00000003092872369419915290000003506384777547925905_" gradientUnits="userSpaceOnUse" x1="61.1125" y1="118.8297" x2="69.621" y2="119.8449">
			<stop  offset="0" style="stop-color:#EAEAEA"/>
			<stop  offset="1" style="stop-color:#A4A4A4"/>
		</linearGradient>
		<polygon style="fill:url(#SVGID_00000003092872369419915290000003506384777547925905_);" points="69.7,115.2 69.7,117.8 
			60.2,123.3 60.2,120.8 		"/>
	</g>
	<g>
		<g>
			
				<linearGradient id="SVGID_00000114041082413779478450000002171149730343081651_" gradientUnits="userSpaceOnUse" x1="7657.9238" y1="62.2689" x2="7588.7676" y2="62.5308" gradientTransform="matrix(-1 0 0 1 7690.6001 0)">
				<stop  offset="0" style="stop-color:#EAEAEA"/>
				<stop  offset="1" style="stop-color:#A4A4A4"/>
			</linearGradient>
			<polygon style="fill:url(#SVGID_00000114041082413779478450000002171149730343081651_);" points="85.8,102.3 23.7,67.4 23,63.7 
				57.3,22.6 119.4,57.4 			"/>
			
				<linearGradient id="SVGID_00000173123638562632744250000002572831548939666316_" gradientUnits="userSpaceOnUse" x1="7611.0488" y1="31.6577" x2="7631.0522" y2="94.012" gradientTransform="matrix(-1 0 0 1 7690.6001 0)">
				<stop  offset="0" style="stop-color:#EAEAEA"/>
				<stop  offset="1" style="stop-color:#A4A4A4"/>
			</linearGradient>
			<polygon style="fill:url(#SVGID_00000173123638562632744250000002572831548939666316_);" points="85.1,98.6 23,63.7 56.6,18.8 
				118.7,53.7 			"/>
			
				<linearGradient id="SVGID_00000069358071747913827280000005922346812667796388_" gradientUnits="userSpaceOnUse" x1="7632.5176" y1="80.4178" x2="7610.2671" y2="42.6684" gradientTransform="matrix(-1 0 0 1 7690.6001 0)">
				<stop  offset="0" style="stop-color:#EAEAEA"/>
				<stop  offset="1" style="stop-color:#A4A4A4"/>
			</linearGradient>
			<polygon style="fill:url(#SVGID_00000069358071747913827280000005922346812667796388_);" points="26.8,62.9 28,63.6 57.6,23.9 
				114.1,55.6 115,54.5 57.3,22.1 			"/>
			
				<linearGradient id="SVGID_00000077317768165528742190000008687198578213770143_" gradientUnits="userSpaceOnUse" x1="7608.4863" y1="35.9508" x2="7631.4595" y2="85.0217" gradientTransform="matrix(-1 0 0 1 7690.6001 0)">
				<stop  offset="0" style="stop-color:#EFEFF6"/>
				<stop  offset="1" style="stop-color:#E6E6E5"/>
			</linearGradient>
			<polygon style="fill:url(#SVGID_00000077317768165528742190000008687198578213770143_);" points="28,63.6 84.4,95.3 114.1,55.6 
				57.6,23.9 			"/>
		</g>
		
			<linearGradient id="SVGID_00000170259254445658337100000014926346124099592583_" gradientUnits="userSpaceOnUse" x1="7574.6411" y1="77.9882" x2="7599.231" y2="77.9882" gradientTransform="matrix(-1 0 0 1 7690.6001 0)">
			<stop  offset="0" style="stop-color:#EAEAEA"/>
			<stop  offset="1" style="stop-color:#706F6F"/>
		</linearGradient>
		<polygon style="fill:url(#SVGID_00000170259254445658337100000014926346124099592583_);" points="118.7,53.7 119.4,57.4 
			85.8,102.3 85.1,98.6 		"/>
		<g>
			<g>
				<polygon class="st11" points="103.2,58.5 107.7,61 111.3,56.1 106.8,53.7 				"/>
				<polygon class="st11" points="97.1,55.2 101.6,57.6 105.2,52.8 100.7,50.3 				"/>
				<polygon class="st11" points="91,51.8 95.5,54.3 99.1,49.4 94.6,46.9 				"/>
				<polygon class="st11" points="84.9,48.4 89.4,50.9 93,46 88.5,43.5 				"/>
				<polygon class="st11" points="78.8,45 83.3,47.5 86.9,42.6 82.4,40.2 				"/>
				<polygon class="st11" points="72.7,41.7 77.2,44.1 80.8,39.3 76.3,36.8 				"/>
				<polygon class="st11" points="66.6,38.3 71.1,40.8 74.7,35.9 70.2,33.4 				"/>
				<polygon class="st11" points="60.5,34.9 65,37.4 68.6,32.5 64.1,30 				"/>
				<polygon class="st11" points="54.4,31.5 58.9,34 62.5,29.1 58,26.7 				"/>
			</g>
			<g>
				<polygon class="st11" points="98.6,64.8 103.1,67.3 106.7,62.4 102.2,59.9 				"/>
				<polygon class="st11" points="92.5,61.4 97,63.9 100.6,59 96.1,56.6 				"/>
				<polygon class="st11" points="86.4,58.1 90.9,60.5 94.5,55.7 90,53.2 				"/>
				<polygon class="st11" points="80.3,54.7 84.8,57.2 88.4,52.3 83.9,49.8 				"/>
				<polygon class="st11" points="74.2,51.3 78.7,53.8 82.3,48.9 77.8,46.4 				"/>
				<polygon class="st11" points="68.1,47.9 72.5,50.4 76.2,45.5 71.7,43.1 				"/>
				<polygon class="st11" points="62,44.6 66.4,47 70,42.2 65.6,39.7 				"/>
				<polygon class="st11" points="55.9,41.2 60.3,43.7 63.9,38.8 59.5,36.3 				"/>
				<polygon class="st11" points="49.8,37.8 54.2,40.3 57.8,35.4 53.4,32.9 				"/>
			</g>
			<g>
				<polygon class="st11" points="93.9,71.1 98.4,73.6 102,68.7 97.5,66.2 				"/>
				<polygon class="st11" points="87.8,67.7 92.3,70.2 95.9,65.3 91.4,62.9 				"/>
				<polygon class="st11" points="81.7,64.4 86.2,66.8 89.8,62 85.3,59.5 				"/>
				<polygon class="st11" points="75.6,61 80.1,63.5 83.7,58.6 79.2,56.1 				"/>
				<polygon class="st11" points="69.5,57.6 74,60.1 77.6,55.2 73.1,52.7 				"/>
				<polygon class="st11" points="63.4,54.2 67.9,56.7 71.5,51.8 67,49.4 				"/>
				<polygon class="st11" points="57.3,50.9 61.8,53.3 65.4,48.5 60.9,46 				"/>
				<polygon class="st11" points="51.2,47.5 55.7,50 59.3,45.1 54.8,42.6 				"/>
				<polygon class="st11" points="45.1,44.1 49.6,46.6 53.2,41.7 48.7,39.2 				"/>
			</g>
			<g>
				<polygon class="st11" points="89.3,77.4 93.8,79.9 97.4,75 92.9,72.5 				"/>
				<polygon class="st11" points="83.2,74 87.7,76.5 91.3,71.6 86.8,69.2 				"/>
				<polygon class="st11" points="77.1,70.6 81.6,73.1 85.2,68.2 80.7,65.8 				"/>
				<polygon class="st11" points="71,67.3 75.5,69.7 79.1,64.9 74.6,62.4 				"/>
				<polygon class="st11" points="64.9,63.9 69.4,66.4 73,61.5 68.5,59 				"/>
				<polygon class="st11" points="58.8,60.5 63.2,63 66.8,58.1 62.4,55.7 				"/>
				<polygon class="st11" points="52.7,57.1 57.1,59.6 60.7,54.7 56.3,52.3 				"/>
				<polygon class="st11" points="46.6,53.8 51,56.2 54.6,51.4 50.2,48.9 				"/>
				<polygon class="st11" points="40.5,50.4 44.9,52.9 48.5,48 44.1,45.5 				"/>
			</g>
			<g>
				<polygon class="st11" points="84.6,83.7 89.1,86.2 92.7,81.3 88.2,78.8 				"/>
				<polygon class="st11" points="78.5,80.3 83,82.8 86.6,77.9 82.1,75.4 				"/>
				<polygon class="st11" points="72.4,76.9 76.9,79.4 80.5,74.5 76,72.1 				"/>
				<polygon class="st11" points="66.3,73.6 70.8,76 74.4,71.2 69.9,68.7 				"/>
				<polygon class="st11" points="60.2,70.2 64.7,72.7 68.3,67.8 63.8,65.3 				"/>
				<polygon class="st11" points="54.1,66.8 58.6,69.3 62.2,64.4 57.7,61.9 				"/>
				<polygon class="st11" points="48,63.4 52.5,65.9 56.1,61 51.6,58.6 				"/>
				<polygon class="st11" points="41.9,60.1 46.4,62.5 50,57.7 45.5,55.2 				"/>
				<polygon class="st11" points="35.8,56.7 40.3,59.2 43.9,54.3 39.4,51.8 				"/>
			</g>
			<g>
				<polygon class="st11" points="80,90 84.5,92.4 88.1,87.6 83.6,85.1 				"/>
				<polygon class="st11" points="73.9,86.6 78.4,89.1 82,84.2 77.5,81.7 				"/>
				<polygon class="st11" points="67.8,83.2 72.3,85.7 75.9,80.8 71.4,78.4 				"/>
				<polygon class="st11" points="61.7,79.9 66.2,82.3 69.8,77.5 65.3,75 				"/>
				<polygon class="st11" points="55.6,76.5 60,78.9 63.7,74.1 59.2,71.6 				"/>
				<polygon class="st11" points="49.5,73.1 53.9,75.6 57.5,70.7 53.1,68.2 				"/>
				<polygon class="st11" points="43.4,69.7 47.8,72.2 51.4,67.3 47,64.9 				"/>
				<polygon class="st11" points="37.3,66.4 41.7,68.8 45.3,64 40.9,61.5 				"/>
				<polygon class="st11" points="31.2,63 35.6,65.4 39.2,60.6 34.8,58.1 				"/>
			</g>
		</g>
	</g>
</g>
</svg>
